<svg xmlns="http://www.w3.org/2000/svg" width="23.012" height="20.389" viewBox="0 0 23.012 20.389">
  <g id="home_i" transform="translate(0 -1.54)">
    <path id="Path_43" data-name="Path 43" d="M3.674,22.084a.478.478,0,0,0,.482.514l5.8-.007.009-4.753s-.082-.784.679-.784h2.407a.746.746,0,0,1,.844.784l-.01,4.738h5.678a.6.6,0,0,0,.609-.64V13.173l-8-7.118-8.5,7.118Z" transform="translate(-0.545 -0.67)" fill="#fff"/>
    <path id="Path_44" data-name="Path 44" d="M0,11.841s.721,1.329,2.294,0l9.4-7.953,8.814,7.9c1.821,1.313,2.5,0,2.5,0L11.695,1.54Z" fill="#fff"/>
    <path id="Path_45" data-name="Path 45" d="M23.435,4.275H21.168l.009,2.749L23.435,8.94Z" transform="translate(-3.14 -0.406)" fill="#fff"/>
  </g>
</svg>
