<svg xmlns="http://www.w3.org/2000/svg" width="24.259" height="24.261" viewBox="0 0 24.259 24.261">
  <g id="logout_i" transform="translate(-1.764)">
    <g id="Group_181" data-name="Group 181" transform="translate(1.764)">
      <g id="Group_180" data-name="Group 180" transform="translate(0)">
        <path id="Path_124" data-name="Path 124" d="M308.711,153a1.022,1.022,0,0,0-.219-.33l-3.032-3.032a1.011,1.011,0,0,0-1.429,1.429l1.307,1.307h-5.647a1.011,1.011,0,0,0,0,2.022h5.647L304.03,155.7a1.011,1.011,0,1,0,1.429,1.429l3.032-3.032a1,1,0,0,0,.219-.33A1.012,1.012,0,0,0,308.711,153Z" transform="translate(-284.528 -142.263)" fill="#fff"/>
        <path id="Path_125" data-name="Path 125" d="M17.2,14.152a1.011,1.011,0,0,0-1.011,1.011v5.054H12.144V4.043a1.012,1.012,0,0,0-.721-.968L7.913,2.022h8.275V7.076a1.011,1.011,0,0,0,2.022,0V1.011A1.011,1.011,0,0,0,17.2,0H1.025a.9.9,0,0,0-.1.019,1,1,0,0,0-.429.15C.47.183.443.184.421.2S.41.217.4.223A1,1,0,0,0,.133.543.826.826,0,0,0,.1.628a.959.959,0,0,0-.08.237.629.629,0,0,0,0,.088c0,.02-.014.038-.014.059V21.228a1.01,1.01,0,0,0,.813.991l10.109,2.022a.941.941,0,0,0,.2.02,1.012,1.012,0,0,0,1.011-1.011V22.239H17.2a1.011,1.011,0,0,0,1.011-1.011V15.163A1.011,1.011,0,0,0,17.2,14.152Z" transform="translate(-0.014)" fill="#fff"/>
      </g>
    </g>
  </g>
</svg>
