<svg xmlns="http://www.w3.org/2000/svg" width="22.768" height="25.553" viewBox="0 0 22.768 25.553">
  <path id="mangers_i" d="M29.479,9.516c-.4,1.521-1.326,1.856-1.821,1.923a10.03,10.03,0,0,1-1.647,2.483,3.279,3.279,0,0,1-1.036.628,4.568,4.568,0,0,1-3.359,0,3.276,3.276,0,0,1-1.036-.628,10.025,10.025,0,0,1-1.647-2.483c-.5-.067-1.424-.4-1.821-1.923a2.42,2.42,0,0,1,.162-1.971,1.538,1.538,0,0,1,.473-.468c0-.162.007-.366.026-.6a2.8,2.8,0,0,1-.194-2.659A2.369,2.369,0,0,1,19.807,2.1,3.864,3.864,0,0,1,21,.789,4.6,4.6,0,0,1,23.646,0a5.968,5.968,0,0,1,3.532,1.235C28.956,2.546,28.8,5.452,28.76,5.98a7.875,7.875,0,0,1,.083,1.1,1.538,1.538,0,0,1,.473.468A2.421,2.421,0,0,1,29.479,9.516Zm5.2,11.327v4.126a.585.585,0,0,1-.585.585H12.5a.585.585,0,0,1-.585-.585V20.843a4.09,4.09,0,0,1,2.583-3.816l5.11-2.044a.585.585,0,0,1,.767.344l1.285,3.552.254-.731-.4-.989a.585.585,0,0,1,.541-.806h2.5a.585.585,0,0,1,.541.806l-.4.989.254.731,1.285-3.552a.585.585,0,0,1,.767-.344l5.11,2.044A4.09,4.09,0,0,1,34.679,20.843Zm-3.112.449a.585.585,0,0,0-.585-.585H27.059a.585.585,0,0,0-.585.585v1.823a.585.585,0,0,0,.585.585h3.924a.585.585,0,0,0,.585-.585V21.291Z" transform="translate(-11.911)" fill="#fff"/>
</svg>
