<svg xmlns="http://www.w3.org/2000/svg" width="21.388" height="16.805" viewBox="0 0 21.388 16.805">
  <g id="message_i" transform="translate(0 0)">
    <path id="Path_121" data-name="Path 121" d="M2.053,60q.406.286,2.447,1.7t3.127,2.178q.119.084.507.364t.644.454q.257.173.621.388a3.6,3.6,0,0,0,.686.322,1.891,1.891,0,0,0,.6.107h.024a1.893,1.893,0,0,0,.6-.107,3.605,3.605,0,0,0,.686-.322q.364-.215.621-.388t.644-.454q.388-.281.507-.364L19.347,60A5.67,5.67,0,0,0,20.8,58.532a3.152,3.152,0,0,0,.585-1.8,1.926,1.926,0,0,0-1.91-1.91H1.91A1.7,1.7,0,0,0,.5,55.441,2.409,2.409,0,0,0,0,56.992a2.788,2.788,0,0,0,.656,1.629A5.924,5.924,0,0,0,2.053,60Z" transform="translate(0 -54.82)" fill="#fff"/>
    <path id="Path_122" data-name="Path 122" d="M20.194,185.475q-3.914,2.649-5.944,4.118-.68.5-1.1.782a6.814,6.814,0,0,1-1.128.573,3.434,3.434,0,0,1-1.313.292h-.024a3.435,3.435,0,0,1-1.313-.292,6.818,6.818,0,0,1-1.128-.573q-.424-.28-1.1-.782-1.611-1.181-5.932-4.118A6.321,6.321,0,0,1,0,184.437v9.476a1.838,1.838,0,0,0,.561,1.349,1.839,1.839,0,0,0,1.349.561H19.479a1.915,1.915,0,0,0,1.91-1.91v-9.476A6.58,6.58,0,0,1,20.194,185.475Z" transform="translate(0 -179.018)" fill="#fff"/>
  </g>
</svg>
