<svg xmlns="http://www.w3.org/2000/svg" width="22.065" height="26.344" viewBox="0 0 22.065 26.344">
  <g id="notification" transform="translate(-42.675 0)">
    <g id="Group_217" data-name="Group 217" transform="translate(42.675)">
      <g id="Group_216" data-name="Group 216">
        <path id="Path_145" data-name="Path 145" d="M64.662,22.189l-1.894-3.137a9.273,9.273,0,0,1-1.337-4.794V11.509A7.689,7.689,0,0,0,55.914,4.16V2.192a2.207,2.207,0,0,0-4.413,0V4.16a7.689,7.689,0,0,0-5.517,7.35v2.748a9.278,9.278,0,0,1-1.336,4.793l-1.894,3.137a.544.544,0,0,0-.007.552.551.551,0,0,0,.479.278H64.189a.554.554,0,0,0,.48-.277A.547.547,0,0,0,64.662,22.189Z" transform="translate(-42.675)" fill="#fff"/>
      </g>
    </g>
    <g id="Group_219" data-name="Group 219" transform="translate(50.217 24.127)">
      <g id="Group_218" data-name="Group 218">
        <path id="Path_146" data-name="Path 146" d="M188.815,469.333a3.856,3.856,0,0,0,6.981,0Z" transform="translate(-188.815 -469.333)" fill="#fff"/>
      </g>
    </g>
  </g>
</svg>
