<svg xmlns="http://www.w3.org/2000/svg" width="22.886" height="18.507" viewBox="0 0 22.886 18.507">
  <g id="project_i" transform="translate(0 0)">
    <path id="Path_131" data-name="Path 131" d="M131.012,64.873h4.042V60.74h2.43v4.134h4.042V46.366H131.012Zm6-16.326h2.43v2.43h-2.43Zm0,3.905h2.43v2.43h-2.43Zm0,3.905h2.43v2.43h-2.43Zm-3.905-7.81h2.43v2.43H133.1Zm0,3.905h2.43v2.43H133.1Zm0,3.905h2.43v2.43H133.1Z" transform="translate(-124.827 -46.366)" fill="#fff"/>
    <path id="Path_132" data-name="Path 132" d="M373.719,81.482V94.568h1.561v3.763h3.68V81.482Zm3.339,11.309h-2.212V90.578h2.212v2.212Zm0-3.555h-2.212V87.023h2.212v2.212Zm0-3.555h-2.212V83.468h2.212V85.68Z" transform="translate(-356.075 -79.824)" fill="#fff"/>
    <path id="Path_133" data-name="Path 133" d="M0,98.332H3.68V94.568H5.241V81.482H0ZM1.9,83.468H4.115V85.68H1.9Zm0,3.555H4.115v2.212H1.9Zm0,3.555H4.115V92.79H1.9Z" transform="translate(0 -79.824)" fill="#fff"/>
  </g>
</svg>
