<svg xmlns="http://www.w3.org/2000/svg" width="23.064" height="23.064" viewBox="0 0 23.064 23.064">
  <g id="question-mark" transform="translate(-2.001 165.064)">
    <path id="Path_144" data-name="Path 144" d="M11.379,0A11.532,11.532,0,1,0,23.064,11.377,11.533,11.533,0,0,0,11.379,0Zm-.034,18.551h-.064a1.679,1.679,0,0,1,.04-3.357h.057a1.678,1.678,0,1,1-.033,3.357Zm4.125-8.188A7.624,7.624,0,0,1,14.093,11.6l-.7.486a1.913,1.913,0,0,0-.707.861,1.782,1.782,0,0,0-.109.722v.113H9.886l.008-.227a2.938,2.938,0,0,1,.443-1.939A11.411,11.411,0,0,1,12.342,10a2.116,2.116,0,0,0,.475-.485,1.708,1.708,0,0,0,.407-1,1.941,1.941,0,0,0-.369-1.147,1.536,1.536,0,0,0-1.329-.5,1.45,1.45,0,0,0-1.343.621,2.5,2.5,0,0,0-.407,1.341v.115H7l.005-.12A4.21,4.21,0,0,1,8.809,5.2a4.739,4.739,0,0,1,2.606-.684,5.626,5.626,0,0,1,3.362.968,3.357,3.357,0,0,1,1.36,2.9A3.314,3.314,0,0,1,15.47,10.364Z" transform="translate(2 -165.064)" fill="#fff"/>
  </g>
</svg>
