<svg xmlns="http://www.w3.org/2000/svg" width="21.243" height="27.038" viewBox="0 0 21.243 27.038">
  <g id="studies_i" transform="translate(-0.016 0)">
    <path id="Path_127" data-name="Path 127" d="M272.016,368.514v1.731l2.214-2.214H272.5A.483.483,0,0,0,272.016,368.514Zm0,0" transform="translate(-255.585 -345.821)" fill="#fff"/>
    <path id="Path_128" data-name="Path 128" d="M35.4,80.031h-3.38v20.277H45.534V97.895a1.448,1.448,0,0,1,1.448-1.448H49.4V80.031h-3.38v.483a.483.483,0,0,1-.483.483H35.878a.483.483,0,0,1-.483-.483Zm1.448,4.345H46.982a.483.483,0,1,1,0,.966H36.844a.483.483,0,1,1,0-.966Zm0,2.9H46.982a.483.483,0,1,1,0,.966H36.844a.483.483,0,1,1,0-.966Zm0,2.9H46.982a.483.483,0,1,1,0,.966H36.844a.483.483,0,1,1,0-.966Zm0,2.9H46.982a.483.483,0,1,1,0,.966H36.844a.483.483,0,1,1,0-.966Zm0,2.9h7.725a.483.483,0,0,1,0,.966H36.844a.483.483,0,0,1,0-.966Zm-1.931.966H34.43a.483.483,0,0,1,0-.966h.483a.483.483,0,0,1,0,.966Zm0-2.9H34.43a.483.483,0,1,1,0-.966h.483a.483.483,0,1,1,0,.966Zm0-2.9H34.43a.483.483,0,1,1,0-.966h.483a.483.483,0,1,1,0,.966Zm0-2.9H34.43a.483.483,0,1,1,0-.966h.483a.483.483,0,1,1,0,.966Zm0-2.9H34.43a.483.483,0,1,1,0-.966h.483a.483.483,0,1,1,0,.966Zm0,0" transform="translate(-30.068 -75.201)" fill="#fff"/>
    <path id="Path_129" data-name="Path 129" d="M112.706,1.933h-1.98a.483.483,0,0,1-.473-.386,1.931,1.931,0,0,0-3.785,0,.483.483,0,0,1-.473.386h-1.98v2.9h8.69Zm-4.345.966a.966.966,0,1,1,.966-.966A.966.966,0,0,1,108.361,2.9Zm0,0" transform="translate(-97.724)" fill="#fff"/>
    <path id="Path_130" data-name="Path 130" d="M19.81,48.031H15.948V49H19.81a.483.483,0,0,1,.483.483V66.86c0,.01-.005.019-.006.029a.485.485,0,0,1-.025.126.441.441,0,0,1-.016.045.48.48,0,0,1-.1.141l-3.862,3.862a.485.485,0,0,1-.339.141H1.464a.483.483,0,0,1-.483-.483V49.48A.483.483,0,0,1,1.464,49H5.327v-.966H1.464A1.448,1.448,0,0,0,.016,49.48V70.723a1.448,1.448,0,0,0,1.448,1.448H19.81a1.448,1.448,0,0,0,1.448-1.448V49.48A1.448,1.448,0,0,0,19.81,48.031Zm0,0" transform="translate(0 -45.133)" fill="#fff"/>
  </g>
</svg>
