<svg xmlns="http://www.w3.org/2000/svg" width="23.369" height="23.369" viewBox="0 0 23.369 23.369">
  <g id="users_i" transform="translate(0)">
    <path id="Path_123" data-name="Path 123" d="M11.685,0A11.684,11.684,0,1,0,23.37,11.684,11.684,11.684,0,0,0,11.685,0Zm.036,17.2H6.658c0-3.65,3.206-3.649,3.917-4.6l.081-.435A3.489,3.489,0,0,1,8.952,9c0-1.882,1.224-3.407,2.733-3.407S14.418,7.121,14.418,9a3.5,3.5,0,0,1-1.679,3.144l.093.495c.78.908,3.879.967,3.879,4.556Z" transform="translate(-0.001 0)" fill="#fff"/>
  </g>
</svg>
